<?xml version="1.0" encoding="UTF-8"?>
<svg id="Layer_1" xmlns="http://www.w3.org/2000/svg" version="1.1" viewBox="0 0 3515.61 1599.97">
  <!-- Generator: Adobe Illustrator 29.8.5, SVG Export Plug-In . SVG Version: 2.1.1 Build 2)  -->
  <path d="M791.33,1092.21c-147-110-271-258-340-401,84-27,190-70,272-122,74-48,129-102,129-169s-78-99-214-99-298,31-388,75c-52,26-24,100,24,81,218-87,474-90,488-57,15.83,37.58-132.7,163.21-361.39,221.1,13.71-38.58,27.76-77.26,42.39-116.1,22-59-58-78-77-29-59,161-123,316-186,476-23,59,75,88,93,36,33.4-93.28,64.48-185.57,96.48-278.01,61.71,152.69,195.52,326.33,358.52,467.01,60,52,135-31,63-85Z"/>
  <path d="M2859.33,1025.21c-437.2,82.89-946.58,91.93-1458.62,54.34,68.67-141.03,137.65-285.61,199.62-422.34,20-44-27-79-66-49-131,100-266,210-395,256,14.09-46.72,44.11-88.89,84.31-125.28,59.62-53.97,141.69-95.23,227.69-119.72h0c50-14,37-78-22-69-84.68,13.23-183.64,64.56-258.05,127.14l.05-.14c-91,69-275,181-411,206,2.32-20.86,7.71-44.13,16.24-68.07,125.23-27.03,235.02-83.5,276.76-133.93,37.8-45.93,37.37-88.89,10.97-113.97-28.77-27.34-88.39-33.45-162.97.97-131,60-220,192-220,311,0,58,33,85,88,85,51.06,0,182.96-55.38,289.56-122.46,0,0,0,0,0,.01h0c-.36,3.52-.56,7.01-.56,10.45,0,116,105,115,201,56,58-35,122-79,184-128l-136.76,291.92c-18.75-1.58-37.5-3.22-56.24-4.92-207-18-311,126-147,325,61,73,102,85,139,9,36.78-74.2,75.6-152.61,115.04-233.01,532.48,31.51,1064.42,24.81,1520.96-69.99,53-11,41-84-19-73ZM1009.33,608.21c-32.68,61.63-108.09,106.69-193.66,128.67,41.14-62.12,105.16-115.79,193.66-128.67ZM1168.33,1367.21c-93-105-84-217,51-208,14.99,1.06,29.99,2.09,44.99,3.1l-95.99,204.9Z"/>
  <path d="M3270.33,607.21c-43,16-86,36-152,58,8.4-32.41,6.53-58.14-1.6-76.66-18.96-43.18-72.01-47.04-108.4-4.34h0c-51,61-162,204-222,278,15-63,64.15-173.4,91.39-237.69l-.03.03.02-.03c16.46-52.58-33.15-78.63-75.39-38.31h0c-26.3,24.99-89.25,95.11-92,98-110.22,115.77-183.61,174.17-282.4,194.13,45.17-130.04,190.99-234.47,263.4-248.13,63.87-12.05,47-87-17-75-90.18,16.27-208.86,104.72-275.93,193.97-61.59,67.64-112.91,105.88-173.07,124.68-.91-28.57,1.33-57.92,6.18-87.63,187.43-159.1,336.8-329.15,405.83-496.37,29.99-71.58,20.67-122.11-9.84-143.55h-.01c-32.57-22.89-89.3-12.63-148.16,40.55-134.22,121.86-301.2,395.78-338.42,576.62-67.98,50.96-129.3,87.1-180.58,117.73,0,0,109.82-200.26,143-263,28.54-53.97-30.68-94.31-74-43-75.76,89.74-224,245-389,310,57-87,139-190,179-255,34-55-33-91-64-53-62,77-128,171-178,256-65,111,19,164,119,118,91-42,160-100,223-163l.02-.02v.02c-57.01,106-54.01,175,8.99,175,57.42,0,139.94-47.16,206.55-96.27,6.84,74.24,35.71,96.92,77.44,96.92,36.36,0,84.78-22.96,136.11-67.13,8.04,49,38.43,69.48,76.88,69.48,78.47,0,199.09-90.66,300.88-188.29l.03-.03-.02.03c-43.38,137.35-18.44,187.29,29.12,187.29,20,0,46-8,82-46,42-45,103-133,205-251-11,81,33,106,84,88,43-15,123-46,166-65,66-28,31-104-22-84ZM2580.33,213.86c-57.81,150.84-180.89,309.84-311.76,439.42,72.81-189.74,220.45-370.4,311.76-439.42Z"/>
</svg>